<mxfile host="app.diagrams.net" modified="2023-04-28T13:11:02.901Z" agent="Mozilla/5.0 (Macintosh; Intel Mac OS X 10_15_7) AppleWebKit/537.36 (KHTML, like Gecko) Chrome/112.0.0.0 Safari/537.36" etag="z9y5NVDW8W82p8sXTX5x" version="21.1.2" type="github">
  <diagram id="NCL2p-JWgOGxsxKp1H8N" name="페이지-1">
    <mxGraphModel dx="1193" dy="1979" grid="1" gridSize="10" guides="1" tooltips="1" connect="1" arrows="1" fold="1" page="1" pageScale="1" pageWidth="827" pageHeight="1169" math="0" shadow="0">
      <root>
        <mxCell id="0" />
        <mxCell id="1" parent="0" />
        <mxCell id="VMQcNs2NsHs9lcobG29F-1" value="사용자" style="shape=umlActor;verticalLabelPosition=bottom;verticalAlign=top;html=1;outlineConnect=0;fontStyle=1" parent="1" vertex="1">
          <mxGeometry x="60" y="222.25" width="50" height="80" as="geometry" />
        </mxCell>
        <mxCell id="7xkepa5mnOWRhtYiWadu-17" value="" style="endArrow=none;html=1;rounded=0;entryX=0;entryY=0.5;entryDx=0;entryDy=0;endFill=0;startArrow=none;startFill=0;exitX=1;exitY=0.3333333333333333;exitDx=0;exitDy=0;exitPerimeter=0;fontStyle=1" parent="1" source="VMQcNs2NsHs9lcobG29F-1" target="VMQcNs2NsHs9lcobG29F-11" edge="1">
          <mxGeometry width="50" height="50" relative="1" as="geometry">
            <mxPoint x="150" y="370" as="sourcePoint" />
            <mxPoint x="450" y="430" as="targetPoint" />
          </mxGeometry>
        </mxCell>
        <mxCell id="7xkepa5mnOWRhtYiWadu-18" value="" style="endArrow=none;html=1;rounded=0;entryX=0;entryY=0.5;entryDx=0;entryDy=0;exitX=1;exitY=0.3333333333333333;exitDx=0;exitDy=0;exitPerimeter=0;startArrow=none;startFill=0;endFill=0;fontStyle=1" parent="1" source="VMQcNs2NsHs9lcobG29F-1" target="Q8g0ZSMfcJW7LGg8qXzG-11" edge="1">
          <mxGeometry width="50" height="50" relative="1" as="geometry">
            <mxPoint x="150" y="345.7962154294032" as="sourcePoint" />
            <mxPoint x="250" y="372.5" as="targetPoint" />
          </mxGeometry>
        </mxCell>
        <mxCell id="gYhQfILOeX3ABxQb6qOJ-9" value="System" style="swimlane;fontStyle=1" parent="1" vertex="1">
          <mxGeometry x="190" y="80" width="760" height="462.25" as="geometry" />
        </mxCell>
        <mxCell id="VMQcNs2NsHs9lcobG29F-11" value="관찰일지를 열람한다." style="ellipse;whiteSpace=wrap;html=1;fontStyle=1;fillColor=#e1d5e7;strokeColor=#9673a6;" parent="gYhQfILOeX3ABxQb6qOJ-9" vertex="1">
          <mxGeometry x="40" y="80" width="120" height="50" as="geometry" />
        </mxCell>
        <mxCell id="Q8g0ZSMfcJW7LGg8qXzG-8" value="물펌프 on/off 값 조정" style="ellipse;whiteSpace=wrap;html=1;fontStyle=1;fillColor=#dae8fc;strokeColor=#6c8ebf;" parent="gYhQfILOeX3ABxQb6qOJ-9" vertex="1">
          <mxGeometry x="440" y="40" width="130" height="50" as="geometry" />
        </mxCell>
        <mxCell id="Q8g0ZSMfcJW7LGg8qXzG-10" value="조명 on/off 값 조정" style="ellipse;whiteSpace=wrap;html=1;fontStyle=1;fillColor=#dae8fc;strokeColor=#6c8ebf;" parent="gYhQfILOeX3ABxQb6qOJ-9" vertex="1">
          <mxGeometry x="440" y="140" width="130" height="50" as="geometry" />
        </mxCell>
        <mxCell id="Q8g0ZSMfcJW7LGg8qXzG-9" value="팬 on/off 값 조정" style="ellipse;whiteSpace=wrap;html=1;fontStyle=1;fillColor=#dae8fc;strokeColor=#6c8ebf;" parent="gYhQfILOeX3ABxQb6qOJ-9" vertex="1">
          <mxGeometry x="440" y="90" width="130" height="50" as="geometry" />
        </mxCell>
        <mxCell id="Q8g0ZSMfcJW7LGg8qXzG-11" value="수동&lt;br&gt;물펌프/조명/팬&amp;nbsp;&lt;br&gt;모드" style="ellipse;whiteSpace=wrap;html=1;fontStyle=1;fillColor=#e1d5e7;strokeColor=#9673a6;" parent="gYhQfILOeX3ABxQb6qOJ-9" vertex="1">
          <mxGeometry x="40" y="152.25" width="120" height="60" as="geometry" />
        </mxCell>
        <mxCell id="Q8g0ZSMfcJW7LGg8qXzG-22" value="" style="endArrow=open;dashed=1;html=1;rounded=0;entryX=1;entryY=0.5;entryDx=0;entryDy=0;endFill=0;exitX=0;exitY=0.5;exitDx=0;exitDy=0;fontStyle=1" parent="gYhQfILOeX3ABxQb6qOJ-9" source="Q8g0ZSMfcJW7LGg8qXzG-9" target="Q8g0ZSMfcJW7LGg8qXzG-11" edge="1">
          <mxGeometry width="50" height="50" relative="1" as="geometry">
            <mxPoint x="310" y="150" as="sourcePoint" />
            <mxPoint x="190" y="160" as="targetPoint" />
          </mxGeometry>
        </mxCell>
        <mxCell id="Q8g0ZSMfcJW7LGg8qXzG-23" value="includes" style="edgeLabel;html=1;align=center;verticalAlign=middle;resizable=0;points=[];fontStyle=1" parent="Q8g0ZSMfcJW7LGg8qXzG-22" vertex="1" connectable="0">
          <mxGeometry x="-0.1447" y="4" relative="1" as="geometry">
            <mxPoint as="offset" />
          </mxGeometry>
        </mxCell>
        <mxCell id="pRRUhXzyRBsDFOCAXH3B-1" value="" style="endArrow=open;dashed=1;html=1;rounded=0;entryX=1;entryY=0.5;entryDx=0;entryDy=0;endFill=0;exitX=0;exitY=0.5;exitDx=0;exitDy=0;fontStyle=1" parent="gYhQfILOeX3ABxQb6qOJ-9" source="Q8g0ZSMfcJW7LGg8qXzG-8" target="Q8g0ZSMfcJW7LGg8qXzG-11" edge="1">
          <mxGeometry width="50" height="50" relative="1" as="geometry">
            <mxPoint x="250" y="266.25" as="sourcePoint" />
            <mxPoint x="150" y="220" as="targetPoint" />
          </mxGeometry>
        </mxCell>
        <mxCell id="pRRUhXzyRBsDFOCAXH3B-2" value="includes" style="edgeLabel;html=1;align=center;verticalAlign=middle;resizable=0;points=[];fontStyle=1" parent="pRRUhXzyRBsDFOCAXH3B-1" vertex="1" connectable="0">
          <mxGeometry x="-0.1447" y="4" relative="1" as="geometry">
            <mxPoint x="-212" y="221" as="offset" />
          </mxGeometry>
        </mxCell>
        <mxCell id="pRRUhXzyRBsDFOCAXH3B-3" value="" style="endArrow=open;dashed=1;html=1;rounded=0;entryX=1;entryY=0.5;entryDx=0;entryDy=0;endFill=0;exitX=0;exitY=0.5;exitDx=0;exitDy=0;fontStyle=1" parent="gYhQfILOeX3ABxQb6qOJ-9" source="Q8g0ZSMfcJW7LGg8qXzG-10" target="Q8g0ZSMfcJW7LGg8qXzG-11" edge="1">
          <mxGeometry width="50" height="50" relative="1" as="geometry">
            <mxPoint x="250" y="266.25" as="sourcePoint" />
            <mxPoint x="150" y="220" as="targetPoint" />
          </mxGeometry>
        </mxCell>
        <mxCell id="pRRUhXzyRBsDFOCAXH3B-4" value="includes" style="edgeLabel;html=1;align=center;verticalAlign=middle;resizable=0;points=[];fontStyle=1" parent="pRRUhXzyRBsDFOCAXH3B-3" vertex="1" connectable="0">
          <mxGeometry x="-0.1447" y="4" relative="1" as="geometry">
            <mxPoint as="offset" />
          </mxGeometry>
        </mxCell>
        <mxCell id="ONS9bMXVID28x1t3R5hX-18" value="자동 토양습도, 온도, 조도 조절 모드" style="ellipse;whiteSpace=wrap;html=1;fontStyle=1;fillColor=#e1d5e7;strokeColor=#9673a6;" parent="gYhQfILOeX3ABxQb6qOJ-9" vertex="1">
          <mxGeometry x="40" y="230" width="120" height="60" as="geometry" />
        </mxCell>
        <mxCell id="ONS9bMXVID28x1t3R5hX-21" value="원하는 토양습도 값 설정" style="ellipse;whiteSpace=wrap;html=1;fontStyle=1;fillColor=#f8cecc;strokeColor=#b85450;" parent="gYhQfILOeX3ABxQb6qOJ-9" vertex="1">
          <mxGeometry x="440" y="230" width="130" height="50" as="geometry" />
        </mxCell>
        <mxCell id="ONS9bMXVID28x1t3R5hX-22" value="원하는 조도 값 설정" style="ellipse;whiteSpace=wrap;html=1;fontStyle=1;fillColor=#f8cecc;strokeColor=#b85450;" parent="gYhQfILOeX3ABxQb6qOJ-9" vertex="1">
          <mxGeometry x="440" y="330" width="130" height="50" as="geometry" />
        </mxCell>
        <mxCell id="ONS9bMXVID28x1t3R5hX-24" value="" style="endArrow=open;dashed=1;html=1;rounded=0;entryX=1;entryY=0.5;entryDx=0;entryDy=0;endFill=0;exitX=0;exitY=0.5;exitDx=0;exitDy=0;fontStyle=1" parent="gYhQfILOeX3ABxQb6qOJ-9" source="ONS9bMXVID28x1t3R5hX-20" edge="1" target="ONS9bMXVID28x1t3R5hX-18">
          <mxGeometry width="50" height="50" relative="1" as="geometry">
            <mxPoint x="400" y="150" as="sourcePoint" />
            <mxPoint x="139.99999999999636" y="305" as="targetPoint" />
          </mxGeometry>
        </mxCell>
        <mxCell id="ONS9bMXVID28x1t3R5hX-25" value="includes" style="edgeLabel;html=1;align=center;verticalAlign=middle;resizable=0;points=[];fontStyle=1" parent="ONS9bMXVID28x1t3R5hX-24" vertex="1" connectable="0">
          <mxGeometry x="-0.1447" y="4" relative="1" as="geometry">
            <mxPoint as="offset" />
          </mxGeometry>
        </mxCell>
        <mxCell id="ONS9bMXVID28x1t3R5hX-26" value="" style="endArrow=open;dashed=1;html=1;rounded=0;entryX=1;entryY=0.5;entryDx=0;entryDy=0;endFill=0;exitX=0;exitY=0.5;exitDx=0;exitDy=0;fontStyle=1" parent="gYhQfILOeX3ABxQb6qOJ-9" source="ONS9bMXVID28x1t3R5hX-21" edge="1" target="ONS9bMXVID28x1t3R5hX-18">
          <mxGeometry width="50" height="50" relative="1" as="geometry">
            <mxPoint x="400" y="150" as="sourcePoint" />
            <mxPoint x="139.99999999999636" y="305" as="targetPoint" />
          </mxGeometry>
        </mxCell>
        <mxCell id="ONS9bMXVID28x1t3R5hX-27" value="includes" style="edgeLabel;html=1;align=center;verticalAlign=middle;resizable=0;points=[];fontStyle=1" parent="ONS9bMXVID28x1t3R5hX-26" vertex="1" connectable="0">
          <mxGeometry x="-0.1447" y="4" relative="1" as="geometry">
            <mxPoint as="offset" />
          </mxGeometry>
        </mxCell>
        <mxCell id="ONS9bMXVID28x1t3R5hX-28" value="" style="endArrow=open;dashed=1;html=1;rounded=0;entryX=1;entryY=0.5;entryDx=0;entryDy=0;endFill=0;exitX=0;exitY=0.5;exitDx=0;exitDy=0;fontStyle=1" parent="gYhQfILOeX3ABxQb6qOJ-9" source="ONS9bMXVID28x1t3R5hX-22" edge="1" target="ONS9bMXVID28x1t3R5hX-18">
          <mxGeometry width="50" height="50" relative="1" as="geometry">
            <mxPoint x="400" y="150" as="sourcePoint" />
            <mxPoint x="139.99999999999636" y="305" as="targetPoint" />
          </mxGeometry>
        </mxCell>
        <mxCell id="ONS9bMXVID28x1t3R5hX-29" value="includes" style="edgeLabel;html=1;align=center;verticalAlign=middle;resizable=0;points=[];fontStyle=1" parent="ONS9bMXVID28x1t3R5hX-28" vertex="1" connectable="0">
          <mxGeometry x="-0.1447" y="4" relative="1" as="geometry">
            <mxPoint as="offset" />
          </mxGeometry>
        </mxCell>
        <mxCell id="ONS9bMXVID28x1t3R5hX-20" value="원하는 온도 값 설정" style="ellipse;whiteSpace=wrap;html=1;fontStyle=1;fillColor=#f8cecc;strokeColor=#b85450;" parent="gYhQfILOeX3ABxQb6qOJ-9" vertex="1">
          <mxGeometry x="440" y="280" width="130" height="50" as="geometry" />
        </mxCell>
        <mxCell id="ykTPU1ibWU2kqlm8Ec5O-3" style="edgeStyle=orthogonalEdgeStyle;rounded=0;orthogonalLoop=1;jettySize=auto;html=1;exitX=0;exitY=0.5;exitDx=0;exitDy=0;dashed=1;entryX=1;entryY=0.5;entryDx=0;entryDy=0;" parent="gYhQfILOeX3ABxQb6qOJ-9" source="ykTPU1ibWU2kqlm8Ec5O-1" target="VMQcNs2NsHs9lcobG29F-11" edge="1">
          <mxGeometry relative="1" as="geometry">
            <Array as="points">
              <mxPoint x="210" y="100" />
              <mxPoint x="160" y="100" />
            </Array>
          </mxGeometry>
        </mxCell>
        <mxCell id="ykTPU1ibWU2kqlm8Ec5O-1" value="관찰일지를 작성한다." style="ellipse;whiteSpace=wrap;html=1;fontStyle=1;fillColor=#e1d5e7;strokeColor=#9673a6;" parent="gYhQfILOeX3ABxQb6qOJ-9" vertex="1">
          <mxGeometry x="210" y="50" width="120" height="50" as="geometry" />
        </mxCell>
        <mxCell id="S6Fi7u9LPnl6_kP8usYG-3" value="식물 종류 별 환경 데이터 추천" style="ellipse;whiteSpace=wrap;html=1;fontStyle=1;fillColor=#e1d5e7;strokeColor=#9673a6;" vertex="1" parent="gYhQfILOeX3ABxQb6qOJ-9">
          <mxGeometry x="110" y="360" width="130" height="60" as="geometry" />
        </mxCell>
        <mxCell id="S6Fi7u9LPnl6_kP8usYG-6" value="식물 종류 별 최적 데이터 검색" style="ellipse;whiteSpace=wrap;html=1;fontStyle=1;fillColor=#f8cecc;strokeColor=#b85450;" vertex="1" parent="gYhQfILOeX3ABxQb6qOJ-9">
          <mxGeometry x="440" y="390" width="130" height="60" as="geometry" />
        </mxCell>
        <mxCell id="S6Fi7u9LPnl6_kP8usYG-7" value="" style="endArrow=open;dashed=1;html=1;rounded=0;entryX=1;entryY=0.5;entryDx=0;entryDy=0;endFill=0;exitX=0;exitY=0.5;exitDx=0;exitDy=0;fontStyle=1" edge="1" parent="gYhQfILOeX3ABxQb6qOJ-9" source="S6Fi7u9LPnl6_kP8usYG-6" target="ONS9bMXVID28x1t3R5hX-18">
          <mxGeometry width="50" height="50" relative="1" as="geometry">
            <mxPoint x="420" y="390" as="sourcePoint" />
            <mxPoint x="140" y="295" as="targetPoint" />
          </mxGeometry>
        </mxCell>
        <mxCell id="S6Fi7u9LPnl6_kP8usYG-8" value="extend" style="edgeLabel;html=1;align=center;verticalAlign=middle;resizable=0;points=[];fontStyle=1" vertex="1" connectable="0" parent="S6Fi7u9LPnl6_kP8usYG-7">
          <mxGeometry x="-0.1447" y="4" relative="1" as="geometry">
            <mxPoint as="offset" />
          </mxGeometry>
        </mxCell>
        <mxCell id="S6Fi7u9LPnl6_kP8usYG-13" style="edgeStyle=orthogonalEdgeStyle;rounded=0;orthogonalLoop=1;jettySize=auto;html=1;exitX=0;exitY=0.5;exitDx=0;exitDy=0;dashed=1;entryX=0.5;entryY=1;entryDx=0;entryDy=0;" edge="1" parent="gYhQfILOeX3ABxQb6qOJ-9" source="S6Fi7u9LPnl6_kP8usYG-3" target="ONS9bMXVID28x1t3R5hX-18">
          <mxGeometry relative="1" as="geometry">
            <mxPoint x="90" y="330" as="sourcePoint" />
            <mxPoint x="40" y="360" as="targetPoint" />
            <Array as="points">
              <mxPoint x="100" y="390" />
            </Array>
          </mxGeometry>
        </mxCell>
        <mxCell id="ykTPU1ibWU2kqlm8Ec5O-4" value="includes" style="edgeLabel;html=1;align=center;verticalAlign=middle;resizable=0;points=[];fontStyle=1" parent="gYhQfILOeX3ABxQb6qOJ-9" vertex="1" connectable="0">
          <mxGeometry x="309.999395664741" y="114.99834731712144" as="geometry" />
        </mxCell>
        <mxCell id="S6Fi7u9LPnl6_kP8usYG-14" value="includes" style="edgeLabel;html=1;align=center;verticalAlign=middle;resizable=0;points=[];fontStyle=1" vertex="1" connectable="0" parent="gYhQfILOeX3ABxQb6qOJ-9">
          <mxGeometry x="179.99935922111138" y="79.99906361013842" as="geometry" />
        </mxCell>
        <mxCell id="Q8g0ZSMfcJW7LGg8qXzG-14" value="" style="endArrow=classic;html=1;rounded=0;entryX=0;entryY=0.3333333333333333;entryDx=0;entryDy=0;exitX=1;exitY=0.5;exitDx=0;exitDy=0;startArrow=none;startFill=0;endFill=1;fontStyle=1;entryPerimeter=0;" parent="1" source="ONS9bMXVID28x1t3R5hX-21" target="9SMeVR1Imt7hrCLU2ti4-5" edge="1">
          <mxGeometry width="50" height="50" relative="1" as="geometry">
            <mxPoint x="650" y="290" as="sourcePoint" />
            <mxPoint x="1060" y="302.75" as="targetPoint" />
          </mxGeometry>
        </mxCell>
        <mxCell id="Q8g0ZSMfcJW7LGg8qXzG-16" value="" style="endArrow=classic;html=1;rounded=0;exitX=1;exitY=0.5;exitDx=0;exitDy=0;startArrow=none;startFill=0;endFill=1;fontStyle=1;entryX=0;entryY=0.3333333333333333;entryDx=0;entryDy=0;entryPerimeter=0;" parent="1" source="ONS9bMXVID28x1t3R5hX-20" target="9SMeVR1Imt7hrCLU2ti4-7" edge="1">
          <mxGeometry width="50" height="50" relative="1" as="geometry">
            <mxPoint x="650" y="390" as="sourcePoint" />
            <mxPoint x="1210" y="400" as="targetPoint" />
          </mxGeometry>
        </mxCell>
        <mxCell id="Q8g0ZSMfcJW7LGg8qXzG-15" value="" style="endArrow=classic;html=1;rounded=0;entryX=0;entryY=0.3333333333333333;entryDx=0;entryDy=0;exitX=1;exitY=0.5;exitDx=0;exitDy=0;startArrow=none;startFill=0;endFill=1;fontStyle=1;entryPerimeter=0;" parent="1" source="ONS9bMXVID28x1t3R5hX-22" target="9SMeVR1Imt7hrCLU2ti4-9" edge="1">
          <mxGeometry width="50" height="50" relative="1" as="geometry">
            <mxPoint x="650" y="470" as="sourcePoint" />
            <mxPoint x="1060" y="522.25" as="targetPoint" />
          </mxGeometry>
        </mxCell>
        <mxCell id="ONS9bMXVID28x1t3R5hX-2" value="" style="endArrow=classic;html=1;rounded=0;fontStyle=1;exitX=0;exitY=1;exitDx=0;exitDy=0;exitPerimeter=0;" parent="1" source="WL1JIH_-fXWyUaX3hJ5p-2" target="ykTPU1ibWU2kqlm8Ec5O-1" edge="1">
          <mxGeometry width="50" height="50" relative="1" as="geometry">
            <mxPoint x="460" y="90" as="sourcePoint" />
            <mxPoint x="490" y="50" as="targetPoint" />
          </mxGeometry>
        </mxCell>
        <mxCell id="ONS9bMXVID28x1t3R5hX-23" value="" style="endArrow=none;html=1;rounded=0;entryX=0;entryY=0.5;entryDx=0;entryDy=0;startArrow=none;startFill=0;endFill=0;exitX=1;exitY=0.3333333333333333;exitDx=0;exitDy=0;exitPerimeter=0;fontStyle=1" parent="1" source="VMQcNs2NsHs9lcobG29F-1" target="ONS9bMXVID28x1t3R5hX-18" edge="1">
          <mxGeometry width="50" height="50" relative="1" as="geometry">
            <mxPoint x="150" y="360" as="sourcePoint" />
            <mxPoint x="240.00000000000318" y="365" as="targetPoint" />
          </mxGeometry>
        </mxCell>
        <mxCell id="ONS9bMXVID28x1t3R5hX-31" value="" style="endArrow=none;html=1;rounded=0;entryX=1;entryY=1;entryDx=0;entryDy=0;exitX=0;exitY=0.5;exitDx=0;exitDy=0;fontStyle=1;entryPerimeter=0;" parent="1" source="ONS9bMXVID28x1t3R5hX-21" target="WL1JIH_-fXWyUaX3hJ5p-2" edge="1">
          <mxGeometry width="50" height="50" relative="1" as="geometry">
            <mxPoint x="580" y="390" as="sourcePoint" />
            <mxPoint x="460" y="90" as="targetPoint" />
          </mxGeometry>
        </mxCell>
        <mxCell id="ONS9bMXVID28x1t3R5hX-32" value="" style="endArrow=none;html=1;rounded=0;exitX=0;exitY=0.5;exitDx=0;exitDy=0;entryX=1;entryY=1;entryDx=0;entryDy=0;fontStyle=1;entryPerimeter=0;" parent="1" source="ONS9bMXVID28x1t3R5hX-20" target="WL1JIH_-fXWyUaX3hJ5p-2" edge="1">
          <mxGeometry width="50" height="50" relative="1" as="geometry">
            <mxPoint x="630" y="425" as="sourcePoint" />
            <mxPoint x="460" y="90" as="targetPoint" />
          </mxGeometry>
        </mxCell>
        <mxCell id="ONS9bMXVID28x1t3R5hX-33" value="" style="endArrow=none;html=1;rounded=0;entryX=1;entryY=1;entryDx=0;entryDy=0;exitX=0;exitY=0.5;exitDx=0;exitDy=0;fontStyle=1;entryPerimeter=0;" parent="1" source="ONS9bMXVID28x1t3R5hX-22" target="WL1JIH_-fXWyUaX3hJ5p-2" edge="1">
          <mxGeometry width="50" height="50" relative="1" as="geometry">
            <mxPoint x="640" y="435" as="sourcePoint" />
            <mxPoint x="460" y="90" as="targetPoint" />
          </mxGeometry>
        </mxCell>
        <mxCell id="ONS9bMXVID28x1t3R5hX-34" value="" style="endArrow=none;html=1;rounded=0;entryX=0;entryY=0.3333333333333333;entryDx=0;entryDy=0;startArrow=classic;startFill=1;endFill=0;exitX=1;exitY=0.5;exitDx=0;exitDy=0;fontStyle=1;entryPerimeter=0;" parent="1" source="ONS9bMXVID28x1t3R5hX-22" target="9SMeVR1Imt7hrCLU2ti4-8" edge="1">
          <mxGeometry width="50" height="50" relative="1" as="geometry">
            <mxPoint x="750" y="520" as="sourcePoint" />
            <mxPoint x="1060" y="467.75" as="targetPoint" />
          </mxGeometry>
        </mxCell>
        <mxCell id="ONS9bMXVID28x1t3R5hX-35" value="" style="endArrow=none;html=1;rounded=0;entryX=0;entryY=0.3333333333333333;entryDx=0;entryDy=0;startArrow=classic;startFill=1;endFill=0;exitX=1;exitY=0.5;exitDx=0;exitDy=0;fontStyle=1;entryPerimeter=0;" parent="1" source="ONS9bMXVID28x1t3R5hX-20" target="9SMeVR1Imt7hrCLU2ti4-6" edge="1">
          <mxGeometry width="50" height="50" relative="1" as="geometry">
            <mxPoint x="750" y="420" as="sourcePoint" />
            <mxPoint x="1060" y="362.75" as="targetPoint" />
          </mxGeometry>
        </mxCell>
        <mxCell id="ONS9bMXVID28x1t3R5hX-38" value="" style="endArrow=classic;html=1;rounded=0;entryX=1;entryY=0.3333333333333333;entryDx=0;entryDy=0;exitX=0;exitY=0.3333333333333333;exitDx=0;exitDy=0;fontStyle=1;exitPerimeter=0;entryPerimeter=0;" parent="1" source="WL1JIH_-fXWyUaX3hJ5p-4" target="WL1JIH_-fXWyUaX3hJ5p-2" edge="1">
          <mxGeometry width="50" height="50" relative="1" as="geometry">
            <mxPoint x="1105" y="157.7500000000001" as="sourcePoint" />
            <mxPoint x="520" y="60" as="targetPoint" />
          </mxGeometry>
        </mxCell>
        <mxCell id="ONS9bMXVID28x1t3R5hX-40" value="" style="endArrow=none;html=1;rounded=0;entryX=1;entryY=1;entryDx=0;entryDy=0;fontStyle=1;exitX=0;exitY=0.5;exitDx=0;exitDy=0;entryPerimeter=0;" parent="1" source="Q8g0ZSMfcJW7LGg8qXzG-9" target="WL1JIH_-fXWyUaX3hJ5p-2" edge="1">
          <mxGeometry width="50" height="50" relative="1" as="geometry">
            <mxPoint x="590" y="260" as="sourcePoint" />
            <mxPoint x="460" y="90" as="targetPoint" />
          </mxGeometry>
        </mxCell>
        <mxCell id="ONS9bMXVID28x1t3R5hX-41" value="" style="endArrow=none;html=1;rounded=0;exitX=0;exitY=0.5;exitDx=0;exitDy=0;fontStyle=1;entryX=1;entryY=1;entryDx=0;entryDy=0;entryPerimeter=0;" parent="1" source="Q8g0ZSMfcJW7LGg8qXzG-10" target="WL1JIH_-fXWyUaX3hJ5p-2" edge="1">
          <mxGeometry width="50" height="50" relative="1" as="geometry">
            <mxPoint x="658.8706221303225" y="227.38696481339582" as="sourcePoint" />
            <mxPoint x="460" y="90" as="targetPoint" />
          </mxGeometry>
        </mxCell>
        <mxCell id="ONS9bMXVID28x1t3R5hX-42" value="" style="endArrow=classic;html=1;rounded=0;startArrow=none;startFill=0;endFill=1;entryX=0;entryY=0.3333333333333333;entryDx=0;entryDy=0;fontStyle=1;exitX=1;exitY=0.5;exitDx=0;exitDy=0;entryPerimeter=0;" parent="1" source="Q8g0ZSMfcJW7LGg8qXzG-8" target="9SMeVR1Imt7hrCLU2ti4-5" edge="1">
          <mxGeometry width="50" height="50" relative="1" as="geometry">
            <mxPoint x="790" y="220" as="sourcePoint" />
            <mxPoint x="1060" y="302.75" as="targetPoint" />
          </mxGeometry>
        </mxCell>
        <mxCell id="ONS9bMXVID28x1t3R5hX-43" value="" style="endArrow=classic;html=1;rounded=0;exitX=1;exitY=0.5;exitDx=0;exitDy=0;startArrow=none;startFill=0;endFill=1;entryX=0;entryY=0.3333333333333333;entryDx=0;entryDy=0;fontStyle=1;entryPerimeter=0;" parent="1" source="Q8g0ZSMfcJW7LGg8qXzG-9" target="9SMeVR1Imt7hrCLU2ti4-7" edge="1">
          <mxGeometry width="50" height="50" relative="1" as="geometry">
            <mxPoint x="750" y="290" as="sourcePoint" />
            <mxPoint x="1060" y="412.75" as="targetPoint" />
          </mxGeometry>
        </mxCell>
        <mxCell id="ONS9bMXVID28x1t3R5hX-39" value="" style="endArrow=none;html=1;rounded=0;exitX=0;exitY=0.5;exitDx=0;exitDy=0;entryX=1;entryY=1;entryDx=0;entryDy=0;fontStyle=1;entryPerimeter=0;" parent="1" source="Q8g0ZSMfcJW7LGg8qXzG-8" target="WL1JIH_-fXWyUaX3hJ5p-2" edge="1">
          <mxGeometry width="50" height="50" relative="1" as="geometry">
            <mxPoint x="654.76" y="412.26" as="sourcePoint" />
            <mxPoint x="460" y="90" as="targetPoint" />
          </mxGeometry>
        </mxCell>
        <mxCell id="ONS9bMXVID28x1t3R5hX-36" value="" style="endArrow=none;html=1;rounded=0;entryX=0;entryY=0.3333333333333333;entryDx=0;entryDy=0;startArrow=classic;startFill=1;endFill=0;exitX=1;exitY=0.5;exitDx=0;exitDy=0;fontStyle=1;entryPerimeter=0;" parent="1" source="ONS9bMXVID28x1t3R5hX-21" target="9SMeVR1Imt7hrCLU2ti4-1" edge="1">
          <mxGeometry width="50" height="50" relative="1" as="geometry">
            <mxPoint x="750" y="420" as="sourcePoint" />
            <mxPoint x="1060" y="242.75" as="targetPoint" />
          </mxGeometry>
        </mxCell>
        <mxCell id="ONS9bMXVID28x1t3R5hX-44" value="" style="endArrow=classic;html=1;rounded=0;exitX=1;exitY=0.5;exitDx=0;exitDy=0;startArrow=none;startFill=0;endFill=1;entryX=0;entryY=0.3333333333333333;entryDx=0;entryDy=0;fontStyle=1;entryPerimeter=0;" parent="1" source="Q8g0ZSMfcJW7LGg8qXzG-10" target="9SMeVR1Imt7hrCLU2ti4-9" edge="1">
          <mxGeometry width="50" height="50" relative="1" as="geometry">
            <mxPoint x="750" y="330" as="sourcePoint" />
            <mxPoint x="1060" y="522.25" as="targetPoint" />
          </mxGeometry>
        </mxCell>
        <mxCell id="WL1JIH_-fXWyUaX3hJ5p-2" value="" style="shape=umlActor;verticalLabelPosition=bottom;verticalAlign=top;html=1;outlineConnect=0;fontStyle=1" parent="1" vertex="1">
          <mxGeometry x="484" y="-20" width="40" height="60" as="geometry" />
        </mxCell>
        <mxCell id="WL1JIH_-fXWyUaX3hJ5p-3" value="파이어베이스" style="text;html=1;align=center;verticalAlign=middle;resizable=0;points=[];autosize=1;strokeColor=none;fillColor=none;" parent="1" vertex="1">
          <mxGeometry x="454" y="-50" width="100" height="30" as="geometry" />
        </mxCell>
        <mxCell id="WL1JIH_-fXWyUaX3hJ5p-4" value="카메라" style="shape=umlActor;verticalLabelPosition=bottom;verticalAlign=top;html=1;outlineConnect=0;fontStyle=1" parent="1" vertex="1">
          <mxGeometry x="1080" y="40" width="30" height="50" as="geometry" />
        </mxCell>
        <mxCell id="9SMeVR1Imt7hrCLU2ti4-1" value="토양 습도 센서" style="shape=umlActor;verticalLabelPosition=bottom;verticalAlign=top;html=1;outlineConnect=0;fontStyle=1" parent="1" vertex="1">
          <mxGeometry x="1080" y="110" width="30" height="52.75" as="geometry" />
        </mxCell>
        <mxCell id="9SMeVR1Imt7hrCLU2ti4-5" value="물 펌프&lt;br&gt;" style="shape=umlActor;verticalLabelPosition=bottom;verticalAlign=top;html=1;outlineConnect=0;fontStyle=1" parent="1" vertex="1">
          <mxGeometry x="1080" y="190" width="30" height="50" as="geometry" />
        </mxCell>
        <mxCell id="9SMeVR1Imt7hrCLU2ti4-6" value="온습도 센서&lt;br&gt;" style="shape=umlActor;verticalLabelPosition=bottom;verticalAlign=top;html=1;outlineConnect=0;fontStyle=1" parent="1" vertex="1">
          <mxGeometry x="1080" y="265.77" width="30" height="50" as="geometry" />
        </mxCell>
        <mxCell id="9SMeVR1Imt7hrCLU2ti4-7" value="팬" style="shape=umlActor;verticalLabelPosition=bottom;verticalAlign=top;html=1;outlineConnect=0;fontStyle=1" parent="1" vertex="1">
          <mxGeometry x="1080" y="340" width="30" height="50" as="geometry" />
        </mxCell>
        <mxCell id="9SMeVR1Imt7hrCLU2ti4-8" value="조도 센서" style="shape=umlActor;verticalLabelPosition=bottom;verticalAlign=top;html=1;outlineConnect=0;fontStyle=1" parent="1" vertex="1">
          <mxGeometry x="1080" y="410" width="30" height="50" as="geometry" />
        </mxCell>
        <mxCell id="9SMeVR1Imt7hrCLU2ti4-9" value="LED&lt;br&gt;" style="shape=umlActor;verticalLabelPosition=bottom;verticalAlign=top;html=1;outlineConnect=0;fontStyle=1" parent="1" vertex="1">
          <mxGeometry x="1080" y="480" width="30" height="50" as="geometry" />
        </mxCell>
        <mxCell id="S6Fi7u9LPnl6_kP8usYG-5" style="edgeStyle=orthogonalEdgeStyle;rounded=0;orthogonalLoop=1;jettySize=auto;html=1;exitX=0;exitY=0.3333333333333333;exitDx=0;exitDy=0;exitPerimeter=0;entryX=0.5;entryY=1;entryDx=0;entryDy=0;" edge="1" parent="1" source="S6Fi7u9LPnl6_kP8usYG-1" target="S6Fi7u9LPnl6_kP8usYG-3">
          <mxGeometry relative="1" as="geometry" />
        </mxCell>
        <mxCell id="S6Fi7u9LPnl6_kP8usYG-1" value="" style="shape=umlActor;verticalLabelPosition=bottom;verticalAlign=top;html=1;outlineConnect=0;fontStyle=1" vertex="1" parent="1">
          <mxGeometry x="484" y="572.25" width="40" height="60" as="geometry" />
        </mxCell>
        <mxCell id="S6Fi7u9LPnl6_kP8usYG-2" value="Chat Gpt" style="text;html=1;strokeColor=none;fillColor=none;align=center;verticalAlign=middle;whiteSpace=wrap;rounded=0;" vertex="1" parent="1">
          <mxGeometry x="474" y="542.25" width="60" height="30" as="geometry" />
        </mxCell>
        <mxCell id="S6Fi7u9LPnl6_kP8usYG-10" style="edgeStyle=orthogonalEdgeStyle;rounded=0;orthogonalLoop=1;jettySize=auto;html=1;exitX=0.5;exitY=1;exitDx=0;exitDy=0;entryX=1;entryY=0.3333333333333333;entryDx=0;entryDy=0;entryPerimeter=0;" edge="1" parent="1" source="S6Fi7u9LPnl6_kP8usYG-6" target="S6Fi7u9LPnl6_kP8usYG-1">
          <mxGeometry relative="1" as="geometry" />
        </mxCell>
      </root>
    </mxGraphModel>
  </diagram>
</mxfile>
